<svg xmlns="http://www.w3.org/2000/svg" viewBox="0 0 1019.01 928.2"><defs><style>.cls-1{fill:#b10038;}</style></defs><g id="Ebene_2" data-name="Ebene 2"><g id="Ebene_1-2" data-name="Ebene 1"><path class="cls-1" d="M535.11,885c93.38-.26,197.37,77.83,273.31,24.57,76.88-53.92,31.15-178.78,68.16-264.05C912.1,563.71,1021.77,513.39,1019,424.48c-2.79-88.42-84.41-156.44-156-210.28-63.37-47.65-149.58-41.59-222.22-74.12C551.11,100,485.15-14.47,388,1.52c-94.72,15.6-118.64,140.87-183.44,210.37C137.4,283.92,8,320,.33,417.3-7.42,516,123.27,568.36,169.65,656.3c43,81.61,12.13,205.41,91.13,254.85S441.34,885.3,535.11,885"/></g></g></svg>