<?xml version="1.0" standalone="no"?><!DOCTYPE svg PUBLIC "-//W3C//DTD SVG 1.1//EN" "http://www.w3.org/Graphics/SVG/1.1/DTD/svg11.dtd"><svg xmlns:xlink="http://www.w3.org/1999/xlink" version="1.1" class="highcharts-root" style="font-family:&quot;lucida grande&quot;, &quot;lucida sans unicode&quot;, arial, helvetica, sans-serif;font-size:12px;" xmlns="http://www.w3.org/2000/svg" width="600" height="400" viewBox="0 0 600 400"><desc>Created with Highcharts 5.0.10</desc><defs><clipPath id="highcharts-usupvp4-14"><rect x="0" y="0" width="580" height="255" fill="none"></rect></clipPath></defs><rect fill="#ffffff" class="highcharts-background" x="0" y="0" width="600" height="400" rx="0" ry="0"></rect><rect fill="none" class="highcharts-plot-background" x="10" y="71" width="580" height="255"></rect><g class="highcharts-pane-group"></g><rect fill="none" class="highcharts-plot-border" x="10" y="71" width="580" height="255"></rect><g class="highcharts-series-group"><g class="highcharts-series highcharts-series-0 highcharts-pie-series highcharts-color-undefined " transform="translate(10,71) scale(1 1)"><path fill="#b52269" d="M 172.50000974845187 192.04786320187563 A 117.5 117.5 0 0 1 173.33926515597346 177.98133581072238 L 220.0035590935841 183.58880148643343 A 70.5 70.5 0 0 0 219.5000058490711 192.02871792112538 Z" transform="translate(0,0)" stroke="#ffffff" stroke-width="1" stroke-linejoin="round" class="highcharts-point highcharts-color-0"></path><path fill="#e3000f" d="M 173.35334214818886 177.86468210465333 A 117.5 117.5 0 0 1 193.26204694814362 125.30653375826958 L 231.9572281688862 151.98392025496173 A 70.5 70.5 0 0 0 220.01200528891331 183.518809262792 Z" transform="translate(0,0)" stroke="#ffffff" stroke-width="1" stroke-linejoin="round" class="highcharts-point highcharts-color-1"></path><path fill="#ff8e57" d="M 193.3287887722423 125.20982916807107 A 117.5 117.5 0 0 1 304.0424245641222 75.3421228019259 L 298.4254547384733 122.00527368115554 A 70.5 70.5 0 0 0 231.99727326334536 151.92589750084264 Z" transform="translate(0,0)" stroke="#ffffff" stroke-width="1" stroke-linejoin="round" class="highcharts-point highcharts-color-2"></path><path fill="#feed01" d="M 304.1590754006656 75.35622355308335 A 117.5 117.5 0 0 1 318.0209362784625 77.89006559427726 L 306.8125617670775 123.53403935656635 A 70.5 70.5 0 0 0 298.49544524039936 122.01373413185001 Z" transform="translate(0,0)" stroke="#ffffff" stroke-width="1" stroke-linejoin="round" class="highcharts-point highcharts-color-3"></path><path fill="#191919" d="M 318.1350321833829 77.91814358084801 A 117.5 117.5 0 0 1 407.4999412500049 191.88250001958332 L 360.49996475000296 191.92950001175 A 70.5 70.5 0 0 0 306.8810193100297 123.55088614850881 Z" transform="translate(0,0)" stroke="#ffffff" stroke-width="1" stroke-linejoin="round" class="highcharts-point highcharts-color-4"></path></g><g class="highcharts-markers highcharts-series-0 highcharts-pie-series highcharts-color-undefined " transform="translate(10,71) scale(1 1)"></g></g><text x="300" text-anchor="middle" class="highcharts-title" style="color:#333333;font-size:18px;fill:#333333;" y="24"><tspan>Gemeinde Recke - Gesamtergebnis - Sitzverteilung</tspan></text><text x="300" text-anchor="middle" class="highcharts-subtitle" style="color:#666666;fill:#666666;" y="52"><tspan>Ratswahl 13.09.2020</tspan></text><g class="highcharts-legend" transform="translate(75,338)"><rect fill="none" class="highcharts-legend-box" rx="0" ry="0" x="0" y="0" width="450" height="47" visibility="visible"></rect><g><g><g class="highcharts-legend-item highcharts-pie-series highcharts-color-0" transform="translate(8,3)"><text x="21" style="color:#333333;font-size:12px;font-weight:bold;cursor:pointer;fill:#333333;" text-anchor="start" y="15"><tspan>DIE LINKE </tspan><tspan style="font-weight:bold" dx="0">1 Sitz</tspan></text><rect x="2" y="4" width="12" height="12" fill="#b52269" rx="6" ry="6" class="highcharts-point"></rect></g><g class="highcharts-legend-item highcharts-pie-series highcharts-color-1" transform="translate(143.4140625,3)"><text x="21" y="15" style="color:#333333;font-size:12px;font-weight:bold;cursor:pointer;fill:#333333;" text-anchor="start"><tspan>SPD </tspan><tspan style="font-weight:bold" dx="0">4 Sitze</tspan></text><rect x="2" y="4" width="12" height="12" fill="#e3000f" rx="6" ry="6" class="highcharts-point"></rect></g><g class="highcharts-legend-item highcharts-pie-series highcharts-color-2" transform="translate(251.98828125,3)"><text x="21" y="15" style="color:#333333;font-size:12px;font-weight:bold;cursor:pointer;fill:#333333;" text-anchor="start"><tspan>KBR </tspan><tspan style="font-weight:bold" dx="0">9 Sitze</tspan></text><rect x="2" y="4" width="12" height="12" fill="#ff8e57" rx="6" ry="6" class="highcharts-point"></rect></g><g class="highcharts-legend-item highcharts-pie-series highcharts-color-3" transform="translate(360.796875,3)"><text x="21" y="15" style="color:#333333;font-size:12px;font-weight:bold;cursor:pointer;fill:#333333;" text-anchor="start"><tspan>FDP </tspan><tspan style="font-weight:bold" dx="0">1 Sitz</tspan></text><rect x="2" y="4" width="12" height="12" fill="#feed01" rx="6" ry="6" class="highcharts-point"></rect></g><g class="highcharts-legend-item highcharts-pie-series highcharts-color-4" transform="translate(8,21)"><text x="21" y="15" style="color:#333333;font-size:12px;font-weight:bold;cursor:pointer;fill:#333333;" text-anchor="start"><tspan>CDU </tspan><tspan style="font-weight:bold" dx="0">11 Sitze</tspan></text><rect x="2" y="4" width="12" height="12" fill="#191919" rx="6" ry="6" class="highcharts-point"></rect></g></g></g></g><text x="590" class="highcharts-credits" text-anchor="end" style="cursor:default;color:#999999;font-size:7pt;fill:#999999;" y="398"><tspan>13.09.2020 21:18 Uhr  - votemanager.de</tspan></text></svg>