<svg xmlns="http://www.w3.org/2000/svg" version="1.1" xmlns:xlink="http://www.w3.org/1999/xlink" xmlns:svgjs="http://svgjs.com/svgjs" width="1440" height="560" preserveAspectRatio="none" viewBox="0 0 1440 560"><g mask="url(&quot;#SvgjsMask1003&quot;)" fill="none"><rect width="1440" height="560" x="0" y="0" fill="rgba(197, 0, 62, 1)"></rect><path d="M0,355.617C82.97,355.378,175.37,426.157,242.85,377.882C311.159,329.015,270.529,215.847,303.409,138.562C334.971,64.375,432.411,18.771,429.913,-61.812C427.429,-141.956,354.912,-203.606,291.289,-252.404C234.984,-295.589,158.381,-290.099,93.837,-319.581C14.217,-355.95,-44.388,-459.662,-130.712,-445.165C-214.875,-431.031,-236.127,-317.489,-293.705,-254.497C-353.381,-189.209,-468.378,-156.51,-475.168,-68.319C-482.056,21.145,-365.928,68.588,-324.719,148.294C-286.473,222.268,-313.94,334.468,-243.75,379.282C-173.523,424.12,-83.32,355.857,0,355.617" fill="#b10038"></path><path d="M1440 1040.253C1537.969 1031.173 1637.487 1047.242 1727.271 1007.0029999999999 1826.013 962.75 1928.176 901.863 1970.75 802.385 2013.103 703.424 1977.025 590.863 1949.9560000000001 486.679 1925.346 391.961 1872.73 312.73199999999997 1821.813 229.15800000000002 1760.258 128.123 1732.651-17.001999999999953 1620.372-54.291000000000054 1508.565-91.42399999999998 1395.374-1.9349999999999454 1291.102 52.90100000000001 1203.805 98.81 1135.716 166.04199999999997 1066.949 236.75 993.8820000000001 311.88 904.594 377.99 876.694 479.009 847.31 585.4 869.077 699.486 910.941 801.613 953.903 906.418 1013.088 1017.053 1116.339 1063.626 1216.979 1109.021 1330.067 1050.442 1440 1040.253" fill="#d90044"></path></g><defs><mask id="SvgjsMask1003"><rect width="1440" height="560" fill="#ffffff"></rect></mask></defs></svg>